<svg width="396" height="38" viewBox="0 0 396 38" fill="none" xmlns="http://www.w3.org/2000/svg">
<path d="M388.623 12.672L376.626 26.088V33.011H384.452V34H367.682V33.011H375.551V26.26L363.425 12.672H356.459V11.64H370.95V12.672H364.973L376.067 25.142L387.161 12.672H381.184V11.64H395.632V12.672H388.623Z" fill="white"/>
<path d="M313.531 33.5381C313.307 32.8942 313.433 31.9004 313.909 30.5566C314.385 29.1849 315.029 27.6452 315.84 25.9375C316.68 24.2018 317.604 22.4102 318.612 20.5625C319.648 18.7148 320.586 16.9932 321.425 15.3975C322.293 13.7738 322.993 12.402 323.525 11.2822C324.085 10.1344 324.309 9.40658 324.197 9.09863C323.861 8.98665 323.497 9.02865 323.105 9.22461C322.741 9.42057 322.363 9.61654 321.971 9.8125C321.607 10.0085 321.243 10.1204 320.879 10.1484C320.516 10.1764 320.194 9.98047 319.914 9.56055C319.774 9.36458 319.718 9.18262 319.746 9.01465C319.802 8.81868 319.886 8.63672 319.998 8.46875C320.138 8.30078 320.278 8.16081 320.418 8.04883C320.586 7.90885 320.726 7.79688 320.837 7.71289C324.029 5.61328 327.052 3.97559 329.908 2.7998C332.791 1.62402 335.367 0.826172 337.634 0.40625C339.93 -0.0136719 341.848 -0.0976562 343.387 0.154297C344.955 0.40625 346.033 0.924154 346.621 1.70801C347.209 2.46387 347.237 3.45768 346.705 4.68945C346.201 5.89323 345.011 7.25098 343.135 8.7627C341.288 10.2744 338.67 11.8981 335.283 13.6338C331.923 15.3415 327.696 17.0911 322.601 18.8828C322.321 19.3307 322.391 19.8346 322.811 20.3945C323.259 20.9544 323.903 21.5703 324.743 22.2422C325.611 22.8861 326.618 23.5579 327.766 24.2578C328.942 24.9577 330.118 25.6715 331.294 26.3994C332.497 27.0993 333.631 27.7992 334.695 28.499C335.787 29.1709 336.683 29.8148 337.382 30.4307C338.082 31.0465 338.53 31.6204 338.726 32.1523C338.95 32.6842 338.768 33.1462 338.18 33.5381C338.152 33.5661 337.97 33.4681 337.634 33.2441C337.326 32.9922 336.934 32.6842 336.459 32.3203C335.983 31.9284 335.465 31.5085 334.905 31.0605C334.373 30.6126 333.855 30.1927 333.351 29.8008C332.875 29.4089 332.455 29.0729 332.091 28.793C331.755 28.513 331.559 28.3451 331.503 28.2891C329.824 27.2253 328.144 26.1755 326.464 25.1396C324.785 24.1038 323.147 22.9421 321.551 21.6543C321.019 21.4863 320.488 21.7663 319.956 22.4941C319.424 23.222 318.906 24.1598 318.402 25.3076C317.898 26.4274 317.394 27.6312 316.89 28.9189C316.414 30.1787 315.966 31.2845 315.546 32.2363C315.127 33.1602 314.749 33.79 314.413 34.126C314.077 34.4899 313.783 34.2939 313.531 33.5381ZM323.525 16.0273C324.141 16.2233 324.967 16.2093 326.003 15.9854C327.066 15.7614 328.228 15.3835 329.488 14.8516C330.776 14.3197 332.105 13.6758 333.477 12.9199C334.877 12.1641 336.207 11.3802 337.466 10.5684C338.726 9.72852 339.874 8.88867 340.91 8.04883C341.974 7.20898 342.799 6.43913 343.387 5.73926C343.975 5.01139 344.283 4.39551 344.311 3.8916C344.367 3.3877 344.031 3.06576 343.303 2.92578C340.28 2.86979 337.704 3.02376 335.577 3.3877C333.449 3.72363 331.629 4.36751 330.118 5.31934C328.606 6.27116 327.332 7.57292 326.296 9.22461C325.261 10.8763 324.337 12.9759 323.525 15.5234V16.0273Z" fill="white"/>
<path d="M278.755 27.4072C278.755 26.6234 279.021 25.9655 279.552 25.4336C280.112 24.8737 280.784 24.5938 281.568 24.5938H287.993L286.901 21.4863C286.453 20.3385 286.005 19.2607 285.557 18.2529C285.137 17.2171 284.647 16.2793 284.088 15.4395C283.584 14.5996 283.01 14.1517 282.366 14.0957C281.694 14.1517 281.092 14.5996 280.56 15.4395C280.028 16.2793 279.538 17.2171 279.09 18.2529C278.671 19.2607 278.237 20.3385 277.789 21.4863L273.799 32.4043C273.52 32.9922 273.156 33.4821 272.708 33.874C272.288 34.238 271.644 34.4199 270.776 34.4199C269.964 34.4199 269.292 34.14 268.76 33.5801C268.257 33.0202 268.033 32.3483 268.089 31.5645C268.117 31.2005 268.201 30.8646 268.34 30.5566L272.96 18.6309C274.247 15.4954 275.535 12.9619 276.823 11.0303C278.083 9.12663 279.93 8.16081 282.366 8.13281C284.773 8.16081 286.607 9.12663 287.867 11.0303C289.155 12.9059 290.442 15.4395 291.73 18.6309L296.349 30.5566C296.489 30.8646 296.573 31.2005 296.601 31.5645C296.657 32.3483 296.419 33.0202 295.887 33.5801C295.383 34.14 294.726 34.4199 293.914 34.4199C292.99 34.4199 292.304 34.238 291.856 33.874C291.436 33.4821 291.086 32.9922 290.806 32.4043L290.008 30.2207H281.568C280.784 30.2207 280.126 29.9408 279.594 29.3809C279.035 28.849 278.755 28.1911 278.755 27.4072Z" fill="white"/>
<path d="M222.226 34.3149C221.317 34.3149 220.862 34.056 220.862 33.5381C220.862 33.1322 221.114 32.9292 221.617 32.9292L222.646 33.0342C223.486 33.0342 224.046 32.5653 224.326 31.6274C224.578 30.8296 224.704 29.4019 224.704 27.3442V12.563C224.704 10.4914 224.606 9.14762 224.41 8.53174C224.214 7.90186 223.976 7.47493 223.696 7.25098C223.43 7.01302 223.08 6.89404 222.646 6.89404L221.617 6.99902C221.114 6.99902 220.862 6.78906 220.862 6.36914C220.862 5.82324 221.317 5.55029 222.226 5.55029L224.977 5.86523C225.565 5.86523 226.09 5.82324 226.552 5.73926L245.889 28.2261V12.521C245.889 10.4774 245.777 9.13363 245.553 8.48975C245.343 7.84587 245.098 7.41195 244.818 7.18799C244.538 6.95003 244.174 6.83105 243.726 6.83105L242.698 6.91504C242.194 6.91504 241.942 6.71208 241.942 6.30615C241.942 5.78825 242.397 5.5293 243.306 5.5293C243.656 5.5293 244.125 5.57829 244.713 5.67627C245.455 5.80225 246.127 5.86523 246.729 5.86523C247.331 5.86523 247.919 5.80924 248.492 5.69727C249.066 5.58529 249.738 5.5293 250.508 5.5293C251.278 5.5293 251.663 5.78825 251.663 6.30615C251.663 6.71208 251.411 6.91504 250.907 6.91504L249.878 6.83105C249.024 6.83105 248.457 7.29997 248.178 8.23779C247.94 8.97965 247.821 10.4074 247.821 12.521V33.7271C247.821 34.203 247.779 34.5179 247.695 34.6719C247.611 34.8258 247.478 34.9028 247.296 34.9028C247.044 34.9028 246.645 34.6089 246.099 34.021L226.741 11.5972V27.3442C226.741 29.4578 226.832 30.8226 227.013 31.4385C227.209 32.0404 227.44 32.4603 227.706 32.6982C227.986 32.9222 228.35 33.0342 228.798 33.0342L229.806 32.9292C230.31 32.9292 230.562 33.1322 230.562 33.5381C230.562 34.056 230.156 34.3149 229.344 34.3149C228.546 34.3149 227.832 34.259 227.202 34.147C226.587 34.049 225.985 34 225.397 34C224.809 34 224.228 34.049 223.654 34.147C223.094 34.259 222.618 34.3149 222.226 34.3149Z" fill="white"/>
<path d="M189.193 34.043C186.269 33.8137 183.876 32.9537 182.012 31.463C180.149 29.9723 179.088 27.7507 178.83 24.798C178.572 21.5873 178.816 18.563 179.561 15.725C180.307 12.8583 181.668 10.1207 183.646 7.51199C184.506 6.36533 185.467 5.577 186.527 5.147C187.588 4.68833 188.692 4.502 189.838 4.588C191.014 4.64533 192.146 4.87466 193.235 5.27599C194.697 5.79199 196.016 6.609 197.191 7.727C198.395 8.845 199.384 10.1493 200.158 11.64C200.932 13.1307 201.434 14.736 201.663 16.456C201.893 18.176 201.764 19.9247 201.276 21.702C199.757 27.2633 196.403 31.1763 191.214 33.441C190.842 33.613 190.469 33.742 190.096 33.828C189.724 33.914 189.423 33.9857 189.193 34.043ZM191.73 30.001C193.192 29.055 194.482 27.9083 195.6 26.561C196.747 25.2137 197.621 23.723 198.223 22.089C198.854 20.455 199.126 18.735 199.04 16.929C198.954 15.123 198.424 13.2883 197.449 11.425C196.245 9.04566 194.74 7.65533 192.934 7.25399C191.128 6.824 189.208 7.45466 187.172 9.146C185.854 10.264 184.836 11.511 184.119 12.887C183.431 14.263 182.93 15.725 182.614 17.273C182.328 18.7923 182.141 20.369 182.055 22.003C182.027 22.3757 181.998 22.7627 181.969 23.164C181.941 23.5367 181.926 23.9237 181.926 24.325C182.012 26.3317 182.528 27.9513 183.474 29.184C184.42 30.388 185.624 31.0903 187.086 31.291C188.548 31.463 190.096 31.033 191.73 30.001Z" fill="white"/>
<path d="M151.594 31.807C151.508 30.8323 151.45 29.614 151.422 28.152C151.393 26.6613 151.379 25.0703 151.379 23.379C151.379 21.6877 151.393 20.0537 151.422 18.477C151.479 16.8717 151.536 15.4527 151.594 14.22C151.651 12.9873 151.708 12.0987 151.766 11.554C151.852 10.866 152.095 10.35 152.497 10.006C152.898 9.63333 153.342 9.37533 153.83 9.232C154.346 9.08867 154.776 9.017 155.12 9.017C155.492 8.98833 155.679 8.974 155.679 8.974C155.679 8.974 155.851 9.00267 156.195 9.06C156.567 9.08866 156.969 9.16033 157.399 9.275C157.829 9.38966 158.13 9.59033 158.302 9.877C158.674 10.4503 158.846 11.0093 158.818 11.554C158.818 12.07 158.789 12.7437 158.732 13.575C158.56 15.725 158.459 17.832 158.431 19.896C158.402 21.96 158.402 23.8377 158.431 25.529C158.459 27.2203 158.488 28.5677 158.517 29.571C158.574 30.5743 158.603 31.076 158.603 31.076C158.603 31.076 158.588 31.2337 158.56 31.549C158.56 31.8357 158.474 32.1653 158.302 32.538C158.13 32.9107 157.8 33.2547 157.313 33.57C156.825 33.8567 156.109 34 155.163 34C154.217 34 153.486 33.8997 152.97 33.699C152.482 33.4697 152.138 33.2117 151.938 32.925C151.766 32.6097 151.665 32.3517 151.637 32.151C151.608 31.9217 151.594 31.807 151.594 31.807Z" fill="white"/>
<path d="M107.541 10.909V3.255H134.029V10.909H125.214V34H116.227V10.909H107.541Z" fill="white"/>
<path d="M79.426 37.0234C77.8583 36.9674 76.3326 36.5335 74.8489 35.7217C73.3932 34.9378 72.1054 33.804 70.9856 32.3203C69.8938 30.8086 69.04 28.9609 68.4241 26.7773C67.8082 24.5937 67.5563 22.0742 67.6682 19.2187C67.7802 16.3633 68.2841 13.8298 69.18 11.6182C70.1038 9.40657 71.2376 7.57291 72.5813 6.11719C73.9251 4.63346 75.3948 3.54166 76.9905 2.84179C78.6142 2.14193 80.2099 1.87597 81.7776 2.04394C82.7294 2.15592 83.5693 2.42187 84.2971 2.84179C85.025 3.26172 85.6549 3.77962 86.1868 4.39551C86.7187 4.9834 87.1666 5.62728 87.5305 6.32715C87.8945 6.99902 88.1884 7.6569 88.4124 8.30078C88.5803 8.46875 88.7623 8.55273 88.9583 8.55273C89.4902 8.58073 89.9661 8.1888 90.386 7.37695C90.8339 6.53711 91.2119 5.16536 91.5198 3.26172L92.6956 3.38769C92.4436 4.33952 92.1637 5.44531 91.8557 6.70508C91.5758 7.93685 91.3098 9.21061 91.0579 10.5264C90.8339 11.8421 90.638 13.1439 90.47 14.4316C90.33 15.7194 90.288 16.8812 90.344 17.917C89.9241 17.749 89.5322 17.637 89.1682 17.5811C88.8043 17.4971 88.4684 17.4411 88.1604 17.4131C87.8245 17.3851 87.5165 17.3851 87.2366 17.4131C87.2926 15.6774 87.2366 14.0117 87.0686 12.416C86.9287 10.8203 86.6487 9.42057 86.2288 8.21679C85.8089 6.98502 85.249 5.99121 84.5491 5.23535C83.8772 4.47949 83.0374 4.05957 82.0296 3.97558C81.1337 3.8916 80.1679 4.08756 79.1321 4.56347C78.0963 5.01139 77.1165 5.83724 76.1927 7.04101C75.2688 8.21679 74.471 9.7985 73.7991 11.7861C73.1272 13.7738 72.7073 16.2513 72.5393 19.2187C72.4553 20.7865 72.5113 22.4381 72.7073 24.1738C72.9033 25.9095 73.2952 27.5192 73.8831 29.0029C74.471 30.4587 75.2688 31.6764 76.2766 32.6562C77.2844 33.6081 78.5582 34.07 80.0979 34.042C81.2737 33.958 82.3655 33.6501 83.3733 33.1182C84.2412 32.6423 85.095 31.9284 85.9348 30.9766C86.7747 30.0247 87.3766 28.653 87.7405 26.8613L89.1262 27.7012C88.9023 28.429 88.5663 29.3389 88.1184 30.4307C87.6705 31.4945 87.0546 32.5303 86.2708 33.5381C85.5149 34.5459 84.5631 35.3857 83.4153 36.0576C82.2955 36.7575 80.9658 37.0794 79.426 37.0234Z" fill="white"/>
<path d="M43.1801 28.1211V8.04883C43.1801 7.18099 43.1381 6.50911 43.0541 6.0332C42.9981 5.5293 42.8302 5.16536 42.5502 4.94141C42.2703 4.68945 41.8644 4.53548 41.3325 4.47949C40.8006 4.39551 40.0727 4.35352 39.1489 4.35352V2.2959C39.5688 2.32389 40.1007 2.35189 40.7446 2.37988C41.4164 2.37988 42.1443 2.39388 42.9282 2.42188C43.74 2.42188 44.5659 2.42188 45.4057 2.42188C46.2735 2.42188 47.0994 2.42188 47.8832 2.42188C48.6671 2.39388 49.395 2.37988 50.0668 2.37988C50.7667 2.37988 51.3266 2.36589 51.7465 2.33789V4.35352C50.8227 4.35352 50.0948 4.39551 49.5629 4.47949C49.059 4.53548 48.6671 4.68945 48.3871 4.94141C48.1352 5.16536 47.9672 5.5293 47.8832 6.0332C47.8273 6.50911 47.7993 7.18099 47.7993 8.04883V28.1211C47.7993 28.9889 47.8412 29.6888 47.9252 30.2207C48.0092 30.7246 48.1912 31.1165 48.4711 31.3965C48.7511 31.6764 49.143 31.8724 49.6469 31.9844C50.1788 32.0684 50.8787 32.1104 51.7465 32.1104V34.126C51.1026 34.098 50.2068 34.07 49.059 34.042C47.9112 34.042 46.7075 34.042 45.4477 34.042C44.2159 34.042 43.0261 34.056 41.8784 34.084C40.7306 34.112 39.8207 34.14 39.1489 34.168V32.1104C40.0167 32.1104 40.7166 32.0684 41.2485 31.9844C41.7804 31.8724 42.1863 31.6764 42.4662 31.3965C42.7742 31.1165 42.9702 30.7246 43.0541 30.2207C43.1381 29.6888 43.1801 28.9889 43.1801 28.1211Z" fill="white"/>
<path d="M5.80035 29.7798H8.82379C11.7492 29.7798 14.0028 28.723 15.5845 26.6094C17.1382 24.5098 17.9151 21.7453 17.9151 18.3159C17.9151 11.7791 15.8225 7.92985 11.6373 6.76807C10.7834 6.53011 9.8456 6.41113 8.82379 6.41113H5.80035V29.7798ZM0.782288 34V2.19092H8.27789C15.9485 2.19092 20.5816 5.27734 22.1773 11.4502C22.6812 13.4238 22.9332 15.5024 22.9332 17.686C22.9332 19.8696 22.7792 21.7103 22.4713 23.208C22.1773 24.7057 21.6664 26.1265 20.9385 27.4702C20.2107 28.814 19.3008 29.9618 18.209 30.9136C15.8155 32.9712 12.5051 34 8.27789 34H0.782288Z" fill="white"/>
</svg>
